<svg version="1.1" viewBox="0 0 24 24" xmlns="http://www.w3.org/2000/svg">
    <path d="m11.638 22.785c-1.0685-0.80717-2.887-1.7776-4.5909-2.4498-1.4177-0.5593-3.419-1.1314-4.7748-1.3648-0.35216-0.06062-0.67136-0.11917-0.70935-0.13007-0.092453-0.02651-0.04454-0.93687 0.094222-1.7902 0.11408-0.70156 0.46218-2.141 0.70273-2.9059l0.16264-0.51716 1.4263-0.03038c1.047-0.02231 1.5367-0.05269 1.8413-0.11436 1.1812-0.23899 2.1706-0.72085 2.8781-1.4017 0.52953-0.50955 0.83744-0.97797 1.0719-1.6307 0.11483-0.3197 0.11488-0.3208 0.13038-3.3119l0.015508-2.9921h-1.0386v-3.1522h6.3043v3.1522h-1.0343l7.46e-4 2.869c7.46e-4 3.1289 4e-3 3.1714 0.28852 3.7988 0.21108 0.46553 0.49045 0.85012 0.89874 1.2372 0.7667 0.72694 1.7027 1.1883 2.9036 1.4313 0.30466 0.06164 0.79429 0.09205 1.8416 0.11436l1.4266 0.03038 0.13926 0.44327c0.50921 1.6208 0.91133 3.7141 0.86495 4.5026l-0.0157 0.26686-0.54178 0.091c-3.3003 0.55436-7.0795 2.0688-9.5048 3.8089-0.20695 0.14848-0.40263 0.26834-0.43484 0.26635-0.03222-2e-3 -0.18808-0.10145-0.34638-0.22103z" />
</svg>
